PathFileType	4	(X/Y/Z)	E:\3-PhD\Data\MocapData\ElaboratedData\009\pre\dynamicElaborations\Run_baseline3\Run_baseline3.trc
DataRate	CameraRate	NumFrames	NumMarkers	Units	OrigDataRate	DataStartFrame
200	200	4	54	mm	200	687
Frame#	Time	FHD			LBHD			RBHD			C7			T10			CLAV			LSHO			LUUPA			LMUPA			LDUPA			LLEP			LMEP			LRAD			LUL			LRFIN			RSHO			RUPA1			RMUPA			RDUPA			RLEP			RMEP			RRAD			RUL			RUFIN			RASI			USACR			LSACR			RSACR			LTHI1			LTHI2			LTHI3			LTHI4			LTIB1			LTIB2			LTIB3			LTIB4			LLMAL			LHEE			LMT1			LMT2			RTHI			RTHI2			RTHI3			RTHI4			RLFC			RTIB1			RTIB2			RTIB3			RTIB4			RLMAL			RHEE			RMT1			RMT2			RMT5		
		X1	Y1	Z1	X2	Y2	Z2	X3	Y3	Z3	X4	Y4	Z4	X5	Y5	Z5	X6	Y6	Z6	X7	Y7	Z7	X8	Y8	Z8	X9	Y9	Z9	X10	Y10	Z10	X11	Y11	Z11	X12	Y12	Z12	X13	Y13	Z13	X14	Y14	Z14	X15	Y15	Z15	X16	Y16	Z16	X17	Y17	Z17	X18	Y18	Z18	X19	Y19	Z19	X20	Y20	Z20	X21	Y21	Z21	X22	Y22	Z22	X23	Y23	Z23	X24	Y24	Z24	X25	Y25	Z25	X26	Y26	Z26	X27	Y27	Z27	X28	Y28	Z28	X29	Y29	Z29	X30	Y30	Z30	X31	Y31	Z31	X32	Y32	Z32	X33	Y33	Z33	X34	Y34	Z34	X35	Y35	Z35	X36	Y36	Z36	X37	Y37	Z37	X38	Y38	Z38	X39	Y39	Z39	X40	Y40	Z40	X41	Y41	Z41	X42	Y42	Z42	X43	Y43	Z43	X44	Y44	Z44	X45	Y45	Z45	X46	Y46	Z46	X47	Y47	Z47	X48	Y48	Z48	X49	Y49	Z49	X50	Y50	Z50	X51	Y51	Z51	X52	Y52	Z52	X53	Y53	Z53	X54	Y54	Z54	

687	3.430000	-920.882601	1424.519519	554.475189	-1069.065274	1441.662468	424.546626	-1068.527134	1415.449745	551.304572	-1136.949897	1317.306409	473.786292	-1360.013220	1044.379687	458.688072	-1059.200324	1184.287213	460.952584	-1065.806619	1260.167352	338.242618	-1125.926158	1116.326098	208.636961	-1086.353629	1090.532079	204.987644	-1126.598873	1055.513748	176.619818	-1122.115403	939.943252	139.445300	-1139.768093	902.639867	201.138214	-872.729941	905.260070	208.509425	-872.284922	843.276203	169.321448	-814.003705	928.863589	171.507288	-1077.328035	1225.093515	630.844777	-1215.762983	1146.720139	725.152127	-1217.941543	1102.083373	724.897845	-1271.523576	1117.320128	745.178466	-1384.026333	1027.872408	762.355301	-1417.045896	1033.856332	696.637709	-1261.050954	802.926721	710.629896	-1322.683217	781.093963	730.020258	-1236.557124	754.517539	767.673039	-1248.492280	821.026979	543.153326	-1400.280370	944.164895	438.799399	-1400.030831	919.502855	404.373262	-1409.696109	906.218339	460.080758	-1116.865537	742.678795	208.247742	-1039.841497	704.066432	210.735231	-1015.013717	717.109211	249.601558	-1025.487319	647.980710	188.613022	-867.325658	398.956710	159.705069	-901.189614	378.022163	82.391317	-868.575780	368.266788	108.645364	-855.146602	282.007571	106.809174	-876.060920	141.097758	18.230817	-954.610156	87.816538	29.007492	-742.184363	67.136003	96.738017	-729.912954	74.228671	51.712458	-1202.201708	591.421242	585.532201	-1143.166516	569.009476	599.412113	-1115.790174	589.570137	604.130176	-1110.173814	493.857105	575.607625	-1041.466285	425.229699	554.340894	-1125.577522	318.130842	404.193000	-1235.761864	327.348975	406.876198	-1204.731628	299.121907	384.188606	-1223.424674	282.953848	332.524592	-1333.900930	283.712952	317.415924	-1392.228044	334.036487	252.808370	-1248.124082	157.754849	230.057649	-1258.824840	148.465486	269.491672	-1319.015058	153.811364	307.251803	
688	3.435000	-895.897075	1416.514874	557.955064	-1042.727013	1434.711568	426.634785	-1043.530779	1407.858908	553.280705	-1111.684859	1311.491456	476.074911	-1337.859221	1040.977866	460.137866	-1035.236568	1177.723119	462.498457	-1042.794611	1254.669313	340.315744	-1096.726820	1107.770285	211.252023	-1055.772719	1083.956536	208.176282	-1094.000229	1046.746085	179.776125	-1082.469719	931.118455	144.176515	-1099.847985	893.365942	205.802461	-834.434335	911.929226	222.788087	-828.832967	850.034293	183.719524	-775.839281	938.903992	187.782877	-1051.148527	1216.690408	632.527223	-1189.497975	1138.960383	727.421944	-1192.649169	1094.501270	726.587138	-1245.666485	1110.120123	747.525315	-1358.999945	1022.206161	765.380625	-1392.516096	1029.397974	700.209870	-1247.491854	790.767415	713.925865	-1310.297769	771.858288	732.935879	-1225.219394	740.318775	770.081769	-1227.251206	817.145698	544.418160	-1378.419715	940.714004	439.309924	-1377.913538	916.261220	404.663107	-1387.923106	902.625704	460.241136	-1094.831339	737.931843	209.477056	-1018.097099	699.048072	212.370384	-993.113859	712.468571	251.073278	-1003.771513	642.798467	190.729741	-850.502268	390.960077	160.819241	-885.729166	371.240882	83.954004	-853.330223	360.540986	109.963585	-842.892573	274.038501	107.875428	-869.078121	134.834585	19.009136	-948.608317	82.571907	29.177758	-735.997982	62.347711	96.480232	-723.635843	69.064230	51.246210	-1179.246847	589.903311	588.677284	-1120.009720	568.727253	603.891308	-1093.088809	589.866616	609.070974	-1085.100967	494.139146	581.327240	-1014.821321	426.864695	561.346884	-1096.387176	321.654429	408.359791	-1206.293080	330.099746	409.893454	-1175.195814	302.434091	387.786537	-1193.027192	286.276223	335.137216	-1303.059130	287.239886	318.579695	-1360.924711	337.412848	253.471586	-1214.584427	163.108958	231.377263	-1225.827338	153.255902	270.478519	-1286.582524	157.680491	307.612615	
689	3.440000	-871.225696	1408.554164	561.718693	-1016.503975	1427.681374	428.843095	-1018.806976	1400.281947	555.379820	-1086.553649	1305.600438	478.351155	-1315.684703	1037.410987	461.556518	-1011.366335	1171.031242	464.357634	-1019.365873	1248.894018	342.624144	-1066.599306	1099.176849	214.090822	-1024.407167	1077.335855	211.795756	-1060.436015	1038.050005	183.317128	-1042.004322	922.679642	149.597024	-1059.250043	884.555414	211.093893	-796.703133	918.735368	237.658068	-786.011513	857.222793	198.893181	-738.530074	949.025882	204.664883	-1025.451058	1208.252771	634.473048	-1163.779484	1130.382653	729.421630	-1167.900919	1086.066347	727.478682	-1220.260154	1101.730420	749.456441	-1334.425125	1015.883232	767.844941	-1368.281943	1024.258838	703.188482	-1234.542847	778.553563	716.929028	-1298.345835	762.601267	735.786902	-1214.397205	726.444614	772.293453	-1205.918775	812.889412	545.771068	-1356.557032	937.017550	439.904428	-1355.827462	912.778032	405.029067	-1366.150843	898.799850	460.485503	-1073.358459	732.631232	210.373917	-996.914927	693.475439	213.371309	-971.494579	707.563586	251.537364	-982.755855	636.963376	192.499600	-834.593220	382.277125	161.538504	-871.356682	364.083638	85.153101	-839.236260	352.257678	110.876813	-832.293881	265.566321	108.443563	-864.370250	128.628507	19.164671	-944.799910	77.240779	28.511051	-732.095567	58.565096	95.793098	-719.563501	64.882029	50.379326	-1156.152981	588.430026	591.893846	-1096.686242	568.616127	608.504201	-1070.257038	590.371344	614.094582	-1059.826801	494.657111	587.111928	-987.922545	428.854714	568.397006	-1066.235266	324.920397	412.761697	-1175.929792	332.300062	412.760330	-1144.632012	305.248112	391.383152	-1161.312164	288.814310	337.586443	-1270.944849	289.722242	319.557076	-1328.247654	339.361475	253.548348	-1179.185157	167.368800	233.288220	-1191.073896	157.075324	272.027370	-1252.495285	160.579167	308.326256	
690	3.445000	-846.875179	1400.714977	565.771770	-990.388237	1420.623954	431.172354	-994.356524	1392.804458	557.597614	-1061.561357	1299.678524	480.649334	-1293.496202	1033.758230	463.044852	-987.585286	1164.267408	466.553445	-995.492864	1242.911754	345.214913	-1035.532301	1090.705203	217.225538	-992.264952	1070.801379	215.926438	-1025.930638	1029.589721	187.311419	-1000.829573	914.763969	155.747393	-1018.083564	876.326789	217.049966	-759.582236	925.666007	253.030730	-743.915204	864.817042	214.754803	-702.110733	959.189131	222.044690	-1000.251235	1199.891324	636.714545	-1138.628284	1121.083229	731.161154	-1143.695825	1076.903274	727.591613	-1195.315807	1092.253878	750.987017	-1310.314299	1008.974793	769.758443	-1344.378827	1018.501671	705.584245	-1222.070464	766.459440	719.597726	-1286.679027	753.446183	738.522318	-1203.940328	713.087785	774.314557	-1184.485015	808.328877	547.280246	-1334.720389	933.127197	440.703924	-1333.817883	909.114852	405.590172	-1344.404485	894.787094	460.930794	-1052.514603	726.824526	210.921627	-976.378850	687.334033	213.698046	-950.234873	702.273806	250.976999	-962.570995	630.470393	193.826243	-819.584006	373.138511	161.806834	-858.047041	356.765226	85.944114	-826.248998	343.652401	111.331792	-823.185449	256.882046	108.439663	-861.537403	122.691487	18.709464	-942.748271	71.998819	27.074249	-730.090783	55.836380	94.776145	-717.314523	61.748996	49.237706	-1132.963030	587.026060	595.223582	-1073.261686	568.675090	613.268856	-1047.370163	591.068124	619.208960	-1034.431211	495.415602	592.944109	-960.865280	431.210955	575.482357	-1035.224351	327.929465	417.464989	-1144.776958	333.984855	415.539390	-1113.090689	307.559555	394.983468	-1128.347289	290.631760	339.988524	-1237.619114	291.151062	320.401439	-1294.238389	339.882750	253.114558	-1142.016489	170.562331	235.839468	-1154.648934	159.948191	274.192062	-1216.819592	162.506324	309.440451	
